<svg xmlns="http://www.w3.org/2000/svg" viewBox="0 0 34 34" fill="none">
  <rect width="34" height="34" fill="#F5F3ED"/>
  <g stroke="#1D3EE3" stroke-width="1.7" stroke-linecap="round" stroke-linejoin="round" transform="translate(0 5)">
    <path d="M8 16 16 16 12 7 21 7 16 16M12 7 8 16M21 7 26 16"/>
    <path d="M12 7V4.4"/>
    <path d="M10.5 4.2H13.6" stroke-width="1.8"/>
    <path d="M21 7V4.4M18.6 4.4H23.2" stroke-width="1.4"/>
    <g><circle cx="8" cy="16" r="5"/><path d="M8 11.2v9.6M3.2 16h9.6M4.6 12.6l6.8 6.8M11.4 12.6l-6.8 6.8" stroke-width="1"/></g>
    <g><circle cx="26" cy="16" r="5"/><path d="M26 11.2v9.6M21.2 16h9.6M22.6 12.6l6.8 6.8M29.4 12.6l-6.8 6.8" stroke-width="1"/></g>
  </g>
</svg>
